<mxfile host="65bd71144e">
    <diagram id="QdpAEqe0KQ9zSXsOPeXD" name="Página-1">
        <mxGraphModel dx="8003" dy="4039" grid="0" gridSize="10" guides="1" tooltips="1" connect="1" arrows="1" fold="1" page="0" pageScale="1" pageWidth="827" pageHeight="1169" background="#ffffff" math="0" shadow="0">
            <root>
                <mxCell id="0"/>
                <mxCell id="1" parent="0"/>
                <mxCell id="11" value="app/services" style="swimlane;horizontal=0;whiteSpace=wrap;html=1;" parent="1" vertex="1">
                    <mxGeometry x="-4532" y="-2446" width="3025" height="684" as="geometry"/>
                </mxCell>
                <mxCell id="15" value="Backend" style="swimlane;whiteSpace=wrap;html=1;verticalAlign=top;" parent="11" vertex="1">
                    <mxGeometry x="39" y="9.25" width="1064" height="461" as="geometry"/>
                </mxCell>
                <mxCell id="18" value="back_agents.py&lt;br&gt;Criação dos Agents, chamadas aos LLMs e criação das Tools&lt;br&gt;" style="rounded=1;whiteSpace=wrap;html=1;fillColor=#dae8fc;strokeColor=#6c8ebf;arcSize=2;align=left;verticalAlign=top;" parent="15" vertex="1">
                    <mxGeometry x="299" y="38.5" width="735" height="413.5" as="geometry"/>
                </mxCell>
                <mxCell id="10" value="back_main.py&lt;br&gt;Contém algumas funções de tratamento de bases" style="rounded=1;whiteSpace=wrap;html=1;fillColor=#dae8fc;strokeColor=#6c8ebf;arcSize=4;verticalAlign=top;align=left;" parent="15" vertex="1">
                    <mxGeometry x="8" y="38.5" width="209" height="422.5" as="geometry"/>
                </mxCell>
                <mxCell id="186" style="edgeStyle=orthogonalEdgeStyle;html=1;entryX=1;entryY=0.75;entryDx=0;entryDy=0;fontFamily=Helvetica;fontSize=12;fontColor=#80001a;" edge="1" parent="15" source="47" target="45">
                    <mxGeometry relative="1" as="geometry">
                        <mxPoint x="234" y="294.75" as="sourcePoint"/>
                    </mxGeometry>
                </mxCell>
                <mxCell id="41" value="df_main_events_pre_processing&lt;br style=&quot;font-size: 10px;&quot;&gt;&lt;div style=&quot;font-size: 10px;&quot;&gt;&amp;nbsp;&lt;/div&gt;&lt;div style=&quot;font-size: 10px;&quot;&gt;Realiza um pré tratamento de dados no dataframe &quot;events&quot;.&lt;/div&gt;&lt;div style=&quot;font-size: 10px;&quot;&gt;&lt;br&gt;&lt;/div&gt;&lt;div style=&quot;font-size: 10px;&quot;&gt;Parâmetros:&lt;/div&gt;&lt;div style=&quot;font-size: 10px;&quot;&gt;df_events:&amp;nbsp; DataFrame com os eventos de uma partida&lt;/div&gt;&lt;div style=&quot;font-size: 10px;&quot;&gt;&lt;br&gt;&lt;/div&gt;&lt;div style=&quot;font-size: 10px;&quot;&gt;Output:&lt;/div&gt;&lt;div style=&quot;font-size: 10px;&quot;&gt;df_main_events: DataFrame&amp;nbsp;&lt;/div&gt;filtrado e t&lt;span style=&quot;background-color: initial;&quot;&gt;ratado&amp;nbsp;&lt;/span&gt;" style="rounded=1;whiteSpace=wrap;html=1;arcSize=4;verticalAlign=top;align=left;fillColor=#f5f5f5;fontColor=#333333;strokeColor=#666666;fontSize=10;" vertex="1" parent="15">
                    <mxGeometry x="26" y="278.75" width="181" height="161.5" as="geometry"/>
                </mxCell>
                <mxCell id="43" value="create_tools&lt;br&gt;Instancia as ferramentas:&lt;br&gt;&amp;nbsp;match_summarizer.&amp;nbsp;match_stats e match_lineup&lt;br&gt;&lt;br&gt;&lt;div&gt;Inputs: match_id, home_team, away_team, user_input, df&lt;/div&gt;&lt;div&gt;Output: Lista de ferramentas.&lt;/div&gt;" style="rounded=1;whiteSpace=wrap;html=1;arcSize=4;verticalAlign=top;align=left;fillColor=#f5f5f5;fontColor=#333333;strokeColor=#666666;fontSize=10;" vertex="1" parent="15">
                    <mxGeometry x="320" y="91" width="232" height="95.25" as="geometry"/>
                </mxCell>
                <mxCell id="57" style="edgeStyle=orthogonalEdgeStyle;html=1;fontSize=10;" edge="1" parent="15" source="44" target="56">
                    <mxGeometry relative="1" as="geometry"/>
                </mxCell>
                <mxCell id="44" value="&lt;span style=&quot;font-size: 10px;&quot;&gt;match_summarizer&lt;br&gt;&lt;/span&gt;&lt;span style=&quot;font-size: 10px;&quot;&gt;Função intermediária para chamar o modelo. Ela passa os dados de cada tempo da partida separado, pois o modelo performou melhor assim.&lt;/span&gt;" style="rounded=1;whiteSpace=wrap;html=1;arcSize=4;verticalAlign=top;align=left;fillColor=#93F5E8;fontColor=#333333;strokeColor=#666666;" vertex="1" parent="15">
                    <mxGeometry x="651" y="83.75" width="166" height="83.5" as="geometry"/>
                </mxCell>
                <mxCell id="45" value="get_lineup&lt;div style=&quot;font-size: 10px;&quot;&gt;&amp;nbsp;&lt;/div&gt;&lt;div style=&quot;font-size: 10px;&quot;&gt;Obtem o dataframe &quot;lineups&quot; e ajusta o formato da tabela para que possa ser passada a relação de jogadores para o modelo de LLM.&lt;/div&gt;&lt;div style=&quot;font-size: 10px;&quot;&gt;&lt;br&gt;&lt;/div&gt;&lt;div style=&quot;font-size: 10px;&quot;&gt;Parâmetros:&lt;/div&gt;&lt;div style=&quot;font-size: 10px;&quot;&gt;match_id, home_team, away_team&lt;/div&gt;&lt;div style=&quot;font-size: 10px;&quot;&gt;&lt;br&gt;&lt;/div&gt;&lt;div style=&quot;font-size: 10px;&quot;&gt;Output:&lt;/div&gt;&lt;div style=&quot;font-size: 10px;&quot;&gt;string estruturada no formato de um json.&lt;/div&gt;" style="rounded=1;whiteSpace=wrap;html=1;arcSize=4;verticalAlign=top;align=left;fillColor=#93F5E8;fontColor=#333333;strokeColor=#666666;fontSize=10;" vertex="1" parent="15">
                    <mxGeometry x="22" y="91" width="189" height="161.5" as="geometry"/>
                </mxCell>
                <mxCell id="49" style="edgeStyle=orthogonalEdgeStyle;html=1;fontSize=10;exitX=0.25;exitY=0;exitDx=0;exitDy=0;" edge="1" parent="15" source="46" target="47">
                    <mxGeometry relative="1" as="geometry"/>
                </mxCell>
                <mxCell id="46" value="main_llm&lt;br style=&quot;font-size: 10px;&quot;&gt;Instancia o agente consolidador e faz a chamada passando os inputs recebidos do streamlit&amp;nbsp;&lt;br style=&quot;font-size: 10px;&quot;&gt;&lt;br style=&quot;font-size: 10px;&quot;&gt;Inputs:&amp;nbsp;match_id, home_team, away_team, llm_tone, user_input, df_main_events&lt;br style=&quot;font-size: 10px;&quot;&gt;Output: String com a resposta do LLM" style="rounded=1;whiteSpace=wrap;html=1;arcSize=4;verticalAlign=top;align=left;fillColor=#f5f5f5;fontColor=#333333;strokeColor=#666666;fontSize=10;" vertex="1" parent="15">
                    <mxGeometry x="326" y="361" width="555" height="82" as="geometry"/>
                </mxCell>
                <mxCell id="51" style="edgeStyle=orthogonalEdgeStyle;html=1;fontSize=10;" edge="1" parent="15" source="47" target="43">
                    <mxGeometry relative="1" as="geometry"/>
                </mxCell>
                <mxCell id="55" style="edgeStyle=orthogonalEdgeStyle;html=1;entryX=0;entryY=0.5;entryDx=0;entryDy=0;fontSize=10;" edge="1" parent="15" source="47" target="44">
                    <mxGeometry relative="1" as="geometry"/>
                </mxCell>
                <mxCell id="58" style="edgeStyle=orthogonalEdgeStyle;html=1;entryX=0;entryY=0.75;entryDx=0;entryDy=0;fontSize=10;" edge="1" parent="15" source="47" target="52">
                    <mxGeometry relative="1" as="geometry"/>
                </mxCell>
                <mxCell id="47" value="instance_agent&lt;br style=&quot;font-size: 10px;&quot;&gt;Agente reAct customizado para realizar a consolidação dos resultados das Tools e adequação ao tom solicitado pelo usuário.&lt;br&gt;&lt;br&gt;Inputs:&amp;nbsp;match_id, home_team, away_team, llm_tone, user_input, df_main_events&lt;br&gt;&lt;br&gt;Output: modelo instanciado" style="rounded=1;whiteSpace=wrap;html=1;arcSize=4;verticalAlign=top;align=left;fillColor=#eea5a5;fontColor=#333333;strokeColor=#666666;fontSize=10;" vertex="1" parent="15">
                    <mxGeometry x="320" y="211.75" width="228" height="123.75" as="geometry"/>
                </mxCell>
                <mxCell id="52" value="&lt;span style=&quot;font-size: 10px;&quot;&gt;match_stats&lt;br&gt;&lt;/span&gt;&lt;span style=&quot;font-size: 10px;&quot;&gt;Modelo preparado para responder perguntas sobre as estatísticas dos times ou jogadores&amp;nbsp;&lt;/span&gt;" style="rounded=1;whiteSpace=wrap;html=1;arcSize=4;verticalAlign=top;align=left;fillColor=#93F5E8;fontColor=#333333;strokeColor=#666666;" vertex="1" parent="15">
                    <mxGeometry x="665" y="221.75" width="337" height="68.25" as="geometry"/>
                </mxCell>
                <mxCell id="56" value="&lt;span style=&quot;font-size: 10px;&quot;&gt;match_summarizer&lt;br&gt;Modelo que recebe o dataframe e realiza e cria um resumo narrativo sobre a partida&lt;/span&gt;" style="rounded=1;whiteSpace=wrap;html=1;arcSize=4;verticalAlign=top;align=left;fillColor=#f5f5f5;fontColor=#333333;strokeColor=#666666;" vertex="1" parent="15">
                    <mxGeometry x="848" y="83.75" width="166" height="83.5" as="geometry"/>
                </mxCell>
                <mxCell id="16" value="Frontend" style="swimlane;whiteSpace=wrap;html=1;" parent="11" vertex="1">
                    <mxGeometry x="1136" y="6" width="1871" height="677" as="geometry"/>
                </mxCell>
                <mxCell id="19" value="front_func.py&lt;br&gt;Concentra todas as funções das páginas streamlit e chamadas à API (Client)&lt;br&gt;&lt;br&gt;" style="rounded=1;whiteSpace=wrap;html=1;fillColor=#d5e8d4;strokeColor=#82b366;arcSize=2;verticalAlign=top;align=left;" parent="16" vertex="1">
                    <mxGeometry x="34" y="174" width="1787" height="490" as="geometry"/>
                </mxCell>
                <mxCell id="176" value="" style="rounded=1;whiteSpace=wrap;html=1;fillColor=none;strokeColor=#FFFFFF;arcSize=5;verticalAlign=top;align=left;strokeWidth=3;dashed=1;" vertex="1" parent="16">
                    <mxGeometry x="967" y="223" width="848" height="424" as="geometry"/>
                </mxCell>
                <mxCell id="136" value="" style="rounded=1;whiteSpace=wrap;html=1;fillColor=none;strokeColor=#FFFFFF;arcSize=5;verticalAlign=top;align=left;strokeWidth=3;dashed=1;" vertex="1" parent="16">
                    <mxGeometry x="53" y="221" width="504" height="420" as="geometry"/>
                </mxCell>
                <mxCell id="25" style="edgeStyle=none;html=1;entryX=0.84;entryY=0.003;entryDx=0;entryDy=0;startArrow=none;startFill=0;exitX=0.713;exitY=1.036;exitDx=0;exitDy=0;entryPerimeter=0;exitPerimeter=0;" parent="16" source="17" target="136" edge="1">
                    <mxGeometry relative="1" as="geometry"/>
                </mxCell>
                <mxCell id="35" value="Call" style="edgeLabel;html=1;align=center;verticalAlign=middle;resizable=0;points=[];" parent="25" vertex="1" connectable="0">
                    <mxGeometry x="0.2203" y="-2" relative="1" as="geometry">
                        <mxPoint as="offset"/>
                    </mxGeometry>
                </mxCell>
                <mxCell id="26" style="edgeStyle=orthogonalEdgeStyle;html=1;entryX=0.5;entryY=0;entryDx=0;entryDy=0;startArrow=none;startFill=0;exitX=1;exitY=0.25;exitDx=0;exitDy=0;" parent="16" source="17" target="20" edge="1">
                    <mxGeometry relative="1" as="geometry"/>
                </mxCell>
                <mxCell id="34" value="Call" style="edgeLabel;html=1;align=center;verticalAlign=middle;resizable=0;points=[];" parent="26" vertex="1" connectable="0">
                    <mxGeometry x="0.3775" relative="1" as="geometry">
                        <mxPoint as="offset"/>
                    </mxGeometry>
                </mxCell>
                <mxCell id="27" style="edgeStyle=orthogonalEdgeStyle;html=1;entryX=0.5;entryY=0;entryDx=0;entryDy=0;startArrow=none;startFill=0;exitX=0.999;exitY=0.195;exitDx=0;exitDy=0;exitPerimeter=0;" parent="16" source="17" target="21" edge="1">
                    <mxGeometry relative="1" as="geometry"/>
                </mxCell>
                <mxCell id="33" value="Call" style="edgeLabel;html=1;align=center;verticalAlign=middle;resizable=0;points=[];" parent="27" vertex="1" connectable="0">
                    <mxGeometry x="-0.1528" y="2" relative="1" as="geometry">
                        <mxPoint as="offset"/>
                    </mxGeometry>
                </mxCell>
                <mxCell id="17" value="front_main.py&lt;br&gt;Cria a barra lateral de filtros, invoca as funções para obtenção de dados, e invoca as demais páginas." style="rounded=1;whiteSpace=wrap;html=1;fillColor=#d5e8d4;strokeColor=#82b366;" parent="16" vertex="1">
                    <mxGeometry x="326" y="35" width="216" height="77" as="geometry"/>
                </mxCell>
                <mxCell id="28" value="Call" style="edgeStyle=none;html=1;entryX=0.5;entryY=0;entryDx=0;entryDy=0;startArrow=none;startFill=0;exitX=0.5;exitY=1;exitDx=0;exitDy=0;" parent="16" source="20" target="142" edge="1">
                    <mxGeometry relative="1" as="geometry"/>
                </mxCell>
                <mxCell id="20" value="front_pageChat.py&lt;br&gt;Página com interface de Chat para interação com modelo de LLM.&lt;br&gt;Define a diagramação da página.&amp;nbsp;" style="rounded=1;whiteSpace=wrap;html=1;fillColor=#d5e8d4;strokeColor=#82b366;" parent="16" vertex="1">
                    <mxGeometry x="877" y="88" width="193" height="77" as="geometry"/>
                </mxCell>
                <mxCell id="29" value="Call" style="edgeStyle=none;html=1;entryX=0.419;entryY=-0.012;entryDx=0;entryDy=0;startArrow=none;startFill=0;exitX=0.5;exitY=1;exitDx=0;exitDy=0;entryPerimeter=0;" parent="16" source="21" target="176" edge="1">
                    <mxGeometry relative="1" as="geometry"/>
                </mxCell>
                <mxCell id="21" value="front_pageStats.py&lt;br&gt;Página com gráficos e KPIs sobre as estatísticas da partida.&lt;br&gt;Define a diagramação da página" style="rounded=1;whiteSpace=wrap;html=1;fillColor=#d5e8d4;strokeColor=#82b366;" parent="16" vertex="1">
                    <mxGeometry x="1191" y="88" width="207" height="77" as="geometry"/>
                </mxCell>
                <mxCell id="67" value="&lt;div style=&quot;color: rgb(0, 0, 0); line-height: 19px;&quot;&gt;&lt;font style=&quot;font-size: 12px;&quot;&gt;&lt;span style=&quot;color: rgb(121, 94, 38);&quot;&gt;getCompetitions&lt;/span&gt;()&lt;/font&gt;&lt;/div&gt;&lt;div style=&quot;color: rgb(0, 0, 0); line-height: 19px;&quot;&gt;&lt;div style=&quot;line-height: 19px;&quot;&gt;&lt;span style=&quot;color: rgb(163, 21, 21);&quot;&gt;&lt;font style=&quot;font-size: 12px;&quot;&gt;Função que faz o request à API para obtenção do dataset de competições&lt;/font&gt;&lt;/span&gt;&lt;/div&gt;&lt;/div&gt;" style="rounded=1;whiteSpace=wrap;html=1;arcSize=4;verticalAlign=top;align=left;fillColor=#f5f5f5;fontColor=#333333;strokeColor=#666666;" vertex="1" parent="16">
                    <mxGeometry x="65" y="548" width="217" height="73" as="geometry"/>
                </mxCell>
                <mxCell id="71" value="Dependência Lógica" style="edgeStyle=orthogonalEdgeStyle;html=1;fontSize=12;dashed=1;dashPattern=8 8;" edge="1" parent="16" source="68" target="67">
                    <mxGeometry relative="1" as="geometry"/>
                </mxCell>
                <mxCell id="68" value="&lt;div style=&quot;color: rgb(0, 0, 0); line-height: 19px;&quot;&gt;&lt;font style=&quot;font-size: 12px;&quot;&gt;&lt;span style=&quot;color: rgb(121, 94, 38);&quot;&gt;filterCompetitions&lt;/span&gt;()&lt;/font&gt;&lt;/div&gt;&lt;div style=&quot;line-height: 19px;&quot;&gt;&lt;div style=&quot;line-height: 19px;&quot;&gt;&lt;div style=&quot;color: rgb(0, 0, 0); line-height: 19px;&quot;&gt;&lt;span style=&quot;color: #a31515;&quot;&gt;&lt;font style=&quot;font-size: 12px;&quot;&gt;Função que cria o seletor de competição e realiza o filtro no df&lt;/font&gt;&lt;/span&gt;&lt;/div&gt;&lt;div style=&quot;color: rgb(0, 0, 0); line-height: 19px;&quot;&gt;&lt;span style=&quot;color: #a31515;&quot;&gt;&lt;font style=&quot;font-size: 12px;&quot;&gt;Inputs: df_comp&lt;/font&gt;&lt;/span&gt;&lt;/div&gt;&lt;div style=&quot;line-height: 19px;&quot;&gt;&lt;font style=&quot;font-size: 12px;&quot; color=&quot;#a31515&quot;&gt;Return: df_comp_filtrado, competition&lt;/font&gt;&lt;/div&gt;&lt;/div&gt;&lt;/div&gt;" style="rounded=1;whiteSpace=wrap;html=1;arcSize=4;verticalAlign=top;align=left;fillColor=#f5f5f5;fontColor=#333333;strokeColor=#666666;" vertex="1" parent="16">
                    <mxGeometry x="62" y="376" width="223" height="108" as="geometry"/>
                </mxCell>
                <mxCell id="72" value="Dependência Lógica" style="edgeStyle=orthogonalEdgeStyle;html=1;entryX=0.5;entryY=0;entryDx=0;entryDy=0;dashed=1;dashPattern=8 8;fontSize=12;" edge="1" parent="16" source="70" target="68">
                    <mxGeometry relative="1" as="geometry"/>
                </mxCell>
                <mxCell id="70" value="&lt;div style=&quot;color: rgb(0, 0, 0); line-height: 19px;&quot;&gt;&lt;font style=&quot;font-size: 12px;&quot;&gt;&lt;span style=&quot;color: rgb(121, 94, 38); background-color: initial;&quot;&gt;filterYear&lt;/span&gt;()&lt;/font&gt;&lt;/div&gt;&lt;div style=&quot;line-height: 19px;&quot;&gt;&lt;div style=&quot;line-height: 19px;&quot;&gt;&lt;div style=&quot;color: rgb(0, 0, 0); line-height: 19px;&quot;&gt;&lt;span style=&quot;color: #a31515;&quot;&gt;&lt;font style=&quot;font-size: 12px;&quot;&gt;Função cria o seletor de ano e realiza o filtro no df&lt;/font&gt;&lt;/span&gt;&lt;/div&gt;&lt;div style=&quot;color: rgb(0, 0, 0); line-height: 19px;&quot;&gt;&lt;span style=&quot;color: #a31515;&quot;&gt;&lt;font style=&quot;font-size: 12px;&quot;&gt;Inputs: df_comp&lt;/font&gt;&lt;/span&gt;&lt;/div&gt;&lt;div style=&quot;line-height: 19px;&quot;&gt;&lt;font style=&quot;font-size: 12px;&quot;&gt;&lt;font style=&quot;font-size: 12px;&quot; color=&quot;#a31515&quot;&gt;Return:&amp;nbsp;&lt;/font&gt;&lt;span style=&quot;font-family: Consolas, &amp;quot;Courier New&amp;quot;, monospace; background-color: initial;&quot;&gt;&lt;font style=&quot;font-size: 12px;&quot; color=&quot;#80001a&quot;&gt;df_comp_filt_year&lt;/font&gt;&lt;/span&gt;&lt;span style=&quot;color: rgb(163, 21, 21); background-color: initial;&quot;&gt;, year&lt;/span&gt;&lt;/font&gt;&lt;br&gt;&lt;/div&gt;&lt;/div&gt;&lt;/div&gt;" style="rounded=1;whiteSpace=wrap;html=1;arcSize=4;verticalAlign=top;align=left;fillColor=#f5f5f5;fontColor=#333333;strokeColor=#666666;" vertex="1" parent="16">
                    <mxGeometry x="62" y="234" width="217" height="113" as="geometry"/>
                </mxCell>
                <mxCell id="92" value="&lt;div style=&quot;color: rgb(0, 0, 0); line-height: 19px;&quot;&gt;&lt;font style=&quot;font-size: 12px;&quot;&gt;&lt;span style=&quot;color: rgb(121, 94, 38);&quot;&gt;getMatches&lt;/span&gt;()&lt;/font&gt;&lt;/div&gt;&lt;div style=&quot;color: rgb(0, 0, 0); line-height: 19px;&quot;&gt;&lt;div style=&quot;line-height: 19px;&quot;&gt;&lt;span style=&quot;color: rgb(163, 21, 21);&quot;&gt;&lt;font style=&quot;font-size: 12px;&quot;&gt;Função que faz o request à API para obtenção do dataset de partidas&lt;/font&gt;&lt;/span&gt;&lt;/div&gt;&lt;/div&gt;" style="rounded=1;whiteSpace=wrap;html=1;arcSize=4;verticalAlign=top;align=left;fillColor=#f5f5f5;fontColor=#333333;strokeColor=#666666;" vertex="1" parent="16">
                    <mxGeometry x="335.5" y="548" width="204.5" height="73" as="geometry"/>
                </mxCell>
                <mxCell id="94" value="&lt;span style=&quot;color: rgb(0, 0, 0);&quot;&gt;Dependência Lógica&lt;/span&gt;" style="edgeStyle=orthogonalEdgeStyle;html=1;dashed=1;dashPattern=8 8;fontFamily=Helvetica;fontSize=12;fontColor=#80001a;" edge="1" parent="16" source="93" target="92">
                    <mxGeometry relative="1" as="geometry"/>
                </mxCell>
                <mxCell id="93" value="&lt;div style=&quot;color: rgb(0, 0, 0); line-height: 19px;&quot;&gt;&lt;font style=&quot;font-size: 12px;&quot;&gt;&lt;span style=&quot;color: rgb(121, 94, 38);&quot;&gt;filterMatch&lt;/span&gt;()&lt;/font&gt;&lt;/div&gt;&lt;div style=&quot;line-height: 19px;&quot;&gt;&lt;div style=&quot;line-height: 19px;&quot;&gt;&lt;div style=&quot;color: rgb(0, 0, 0); line-height: 19px;&quot;&gt;&lt;span style=&quot;color: #a31515;&quot;&gt;&lt;font style=&quot;font-size: 12px;&quot;&gt;Função que cria o seletor de partida e realiza o filtro no df&lt;/font&gt;&lt;/span&gt;&lt;/div&gt;&lt;div style=&quot;color: rgb(0, 0, 0); line-height: 19px;&quot;&gt;&lt;font style=&quot;font-size: 12px;&quot;&gt;&lt;span style=&quot;color: #a31515;&quot;&gt;&lt;font style=&quot;font-size: 12px;&quot;&gt;Inputs:&amp;nbsp;&lt;/font&gt;&lt;/span&gt;&lt;span style=&quot;color: rgb(163, 21, 21); background-color: initial;&quot;&gt;df_comp_filt_year&lt;/span&gt;&lt;/font&gt;&lt;/div&gt;&lt;div style=&quot;line-height: 19px;&quot;&gt;&lt;font style=&quot;font-size: 12px;&quot;&gt;&lt;font style=&quot;font-size: 12px;&quot; color=&quot;#a31515&quot;&gt;Return:&amp;nbsp;&lt;/font&gt;&lt;span style=&quot;color: rgb(163, 21, 21); background-color: initial;&quot;&gt;df_matches, match&lt;/span&gt;&lt;/font&gt;&lt;/div&gt;&lt;/div&gt;&lt;/div&gt;" style="rounded=1;whiteSpace=wrap;html=1;arcSize=4;verticalAlign=top;align=left;fillColor=#f5f5f5;fontColor=#333333;strokeColor=#666666;" vertex="1" parent="16">
                    <mxGeometry x="334" y="380" width="208" height="108" as="geometry"/>
                </mxCell>
                <mxCell id="140" value="&lt;span style=&quot;color: rgb(0, 0, 0);&quot;&gt;Dependência Lógica&lt;/span&gt;" style="edgeStyle=orthogonalEdgeStyle;html=1;entryX=0.5;entryY=1;entryDx=0;entryDy=0;fontFamily=Helvetica;fontSize=12;fontColor=#80001a;exitX=0.321;exitY=0.015;exitDx=0;exitDy=0;exitPerimeter=0;dashed=1;" edge="1" parent="16" source="137" target="139">
                    <mxGeometry relative="1" as="geometry"/>
                </mxCell>
                <mxCell id="137" value="&lt;div style=&quot;color: rgb(0, 0, 0); line-height: 19px;&quot;&gt;&lt;font style=&quot;font-size: 12px;&quot;&gt;&lt;span style=&quot;color: rgb(121, 94, 38); background-color: initial;&quot;&gt;getMatchAnalysis&lt;/span&gt;()&lt;/font&gt;&lt;/div&gt;&lt;div style=&quot;line-height: 19px;&quot;&gt;&lt;div style=&quot;line-height: 19px;&quot;&gt;&lt;div style=&quot;color: rgb(0, 0, 0); line-height: 19px;&quot;&gt;&lt;font style=&quot;font-size: 12px;&quot;&gt;&lt;span style=&quot;color: rgb(163, 21, 21); background-color: initial;&quot;&gt;Função que faz o request à API para&amp;nbsp; obter a análise dos dados da partida realizado pelo modelo de LLM&lt;/span&gt;&lt;span style=&quot;color: #a31515;&quot;&gt;&lt;font style=&quot;font-size: 12px;&quot;&gt;&lt;br&gt;&lt;/font&gt;&lt;/span&gt;&lt;/font&gt;&lt;/div&gt;&lt;div style=&quot;color: rgb(0, 0, 0); line-height: 19px;&quot;&gt;&lt;span style=&quot;color: rgb(163, 21, 21); background-color: initial;&quot;&gt;&lt;font style=&quot;font-size: 12px;&quot;&gt;&lt;br&gt;&lt;/font&gt;&lt;/span&gt;&lt;/div&gt;&lt;div style=&quot;color: rgb(0, 0, 0); line-height: 19px;&quot;&gt;&lt;font style=&quot;font-size: 12px;&quot;&gt;&lt;span style=&quot;color: rgb(163, 21, 21);&quot;&gt;Input:&amp;nbsp;&lt;/span&gt;&lt;span style=&quot;border-color: var(--border-color); color: rgb(163, 21, 21); background-color: initial;&quot;&gt;match_id, home_team, away_team, llm_tone, user_input&lt;/span&gt;&lt;br style=&quot;border-color: var(--border-color); color: rgb(163, 21, 21);&quot;&gt;&lt;span style=&quot;color: rgb(163, 21, 21);&quot;&gt;Output: String com a resposta do modelo LLM.&lt;/span&gt;&lt;/font&gt;&lt;span style=&quot;font-size: 13px; color: rgb(163, 21, 21); background-color: initial;&quot;&gt;&lt;br&gt;&lt;/span&gt;&lt;/div&gt;&lt;/div&gt;&lt;/div&gt;" style="rounded=1;whiteSpace=wrap;html=1;arcSize=4;verticalAlign=top;align=left;fillColor=#f5f5f5;fontColor=#333333;strokeColor=#666666;" vertex="1" parent="16">
                    <mxGeometry x="581" y="509" width="344" height="126" as="geometry"/>
                </mxCell>
                <mxCell id="139" value="&lt;div style=&quot;color: rgb(0, 0, 0); line-height: 19px;&quot;&gt;&lt;font style=&quot;font-size: 12px;&quot;&gt;&lt;span style=&quot;color: rgb(121, 94, 38); font-family: Consolas, &amp;quot;Courier New&amp;quot;, monospace; background-color: initial;&quot;&gt;select_llm_tone&lt;/span&gt;()&lt;/font&gt;&lt;/div&gt;&lt;div style=&quot;line-height: 19px;&quot;&gt;&lt;div style=&quot;line-height: 19px;&quot;&gt;&lt;div style=&quot;color: rgb(0, 0, 0); line-height: 19px;&quot;&gt;&lt;span style=&quot;color: rgb(163, 21, 21);&quot;&gt;&lt;font style=&quot;font-size: 12px;&quot;&gt;&lt;font style=&quot;font-size: 12px;&quot;&gt;Função que cria o seletor de tom narrativo&lt;/font&gt;&lt;br&gt;&lt;/font&gt;&lt;/span&gt;&lt;/div&gt;&lt;/div&gt;&lt;/div&gt;" style="rounded=1;whiteSpace=wrap;html=1;arcSize=4;verticalAlign=top;align=left;fillColor=#f5f5f5;fontColor=#333333;strokeColor=#666666;" vertex="1" parent="16">
                    <mxGeometry x="591" y="383" width="195" height="66" as="geometry"/>
                </mxCell>
                <mxCell id="141" value="&lt;div style=&quot;color: rgb(0, 0, 0); line-height: 19px;&quot;&gt;&lt;font style=&quot;font-size: 12px;&quot;&gt;&lt;span style=&quot;color: rgb(121, 94, 38); font-family: Consolas, &amp;quot;Courier New&amp;quot;, monospace; font-size: 14px; background-color: initial;&quot;&gt;getPlayerProfile&lt;/span&gt;()&lt;/font&gt;&lt;/div&gt;&lt;div style=&quot;line-height: 19px;&quot;&gt;&lt;div style=&quot;line-height: 19px;&quot;&gt;&lt;div style=&quot;color: rgb(0, 0, 0); line-height: 19px;&quot;&gt;&lt;font style=&quot;font-size: 12px;&quot;&gt;&lt;span style=&quot;color: rgb(163, 21, 21); background-color: initial;&quot;&gt;Função que faz o request à API para&amp;nbsp; o dataset agregado por eventos para criação dos perfis dos jogadores.&lt;/span&gt;&lt;span style=&quot;color: #a31515;&quot;&gt;&lt;font style=&quot;font-size: 12px;&quot;&gt;&lt;br&gt;&lt;/font&gt;&lt;/span&gt;&lt;/font&gt;&lt;/div&gt;&lt;div style=&quot;color: rgb(0, 0, 0); line-height: 19px;&quot;&gt;&lt;span style=&quot;color: rgb(163, 21, 21); background-color: initial;&quot;&gt;&lt;font style=&quot;font-size: 12px;&quot;&gt;&lt;br&gt;&lt;/font&gt;&lt;/span&gt;&lt;/div&gt;&lt;div style=&quot;color: rgb(0, 0, 0); line-height: 19px;&quot;&gt;&lt;font style=&quot;font-size: 12px;&quot;&gt;&lt;span style=&quot;color: rgb(163, 21, 21);&quot;&gt;Input:&amp;nbsp;&lt;/span&gt;&lt;span style=&quot;border-color: var(--border-color); color: rgb(163, 21, 21); background-color: initial;&quot;&gt;match_id&lt;/span&gt;&lt;/font&gt;&lt;/div&gt;&lt;div style=&quot;color: rgb(0, 0, 0); line-height: 19px;&quot;&gt;&lt;font style=&quot;font-size: 12px;&quot;&gt;&lt;span style=&quot;color: rgb(163, 21, 21);&quot;&gt;Output: Dataframe&lt;/span&gt;&lt;/font&gt;&lt;span style=&quot;font-size: 13px; color: rgb(163, 21, 21); background-color: initial;&quot;&gt;&lt;br&gt;&lt;/span&gt;&lt;/div&gt;&lt;/div&gt;&lt;/div&gt;" style="rounded=1;whiteSpace=wrap;html=1;arcSize=4;verticalAlign=top;align=left;fillColor=#f5f5f5;fontColor=#333333;strokeColor=#666666;" vertex="1" parent="16">
                    <mxGeometry x="994" y="503" width="344" height="126" as="geometry"/>
                </mxCell>
                <mxCell id="142" value="" style="rounded=1;whiteSpace=wrap;html=1;fillColor=none;strokeColor=#FFFFFF;arcSize=5;verticalAlign=top;align=left;strokeWidth=3;dashed=1;" vertex="1" parent="16">
                    <mxGeometry x="570" y="341" width="364" height="299" as="geometry"/>
                </mxCell>
                <mxCell id="179" value="&lt;span style=&quot;color: rgb(0, 0, 0);&quot;&gt;Dependência Lógica&lt;/span&gt;" style="edgeStyle=orthogonalEdgeStyle;html=1;fontFamily=Helvetica;fontSize=12;fontColor=#80001a;dashed=1;" edge="1" parent="16" source="172" target="141">
                    <mxGeometry relative="1" as="geometry"/>
                </mxCell>
                <mxCell id="172" value="&lt;div style=&quot;color: rgb(0, 0, 0); line-height: 19px;&quot;&gt;&lt;font style=&quot;font-size: 12px;&quot;&gt;&lt;span style=&quot;color: rgb(121, 94, 38); background-color: initial;&quot;&gt;dash_events_per_period&lt;/span&gt;()&lt;/font&gt;&lt;/div&gt;&lt;div style=&quot;line-height: 19px;&quot;&gt;&lt;div style=&quot;line-height: 19px;&quot;&gt;&lt;div style=&quot;color: rgb(0, 0, 0); line-height: 19px;&quot;&gt;&lt;font style=&quot;font-size: 12px;&quot;&gt;&lt;div style=&quot;line-height: 19px;&quot;&gt;&lt;span style=&quot;color: #a31515;&quot;&gt;Função que cria o gráfico de eventos por período da partida&lt;/span&gt;&lt;/div&gt;&lt;/font&gt;&lt;/div&gt;&lt;div style=&quot;color: rgb(0, 0, 0); line-height: 19px;&quot;&gt;&lt;span style=&quot;color: rgb(163, 21, 21); background-color: initial;&quot;&gt;&lt;font style=&quot;font-size: 12px;&quot;&gt;&lt;br&gt;&lt;/font&gt;&lt;/span&gt;&lt;/div&gt;&lt;div style=&quot;color: rgb(0, 0, 0); line-height: 19px;&quot;&gt;&lt;font style=&quot;font-size: 12px;&quot;&gt;&lt;span style=&quot;color: rgb(163, 21, 21);&quot;&gt;Input:&amp;nbsp;&lt;/span&gt;&lt;span style=&quot;border-color: var(--border-color); color: rgb(163, 21, 21); background-color: initial;&quot;&gt;df&lt;/span&gt;&lt;/font&gt;&lt;/div&gt;&lt;div style=&quot;color: rgb(0, 0, 0); line-height: 19px;&quot;&gt;&lt;font style=&quot;font-size: 12px;&quot;&gt;&lt;span style=&quot;color: rgb(163, 21, 21);&quot;&gt;Output: fig pyplot&lt;/span&gt;&lt;/font&gt;&lt;span style=&quot;font-size: 13px; color: rgb(163, 21, 21); background-color: initial;&quot;&gt;&lt;br&gt;&lt;/span&gt;&lt;/div&gt;&lt;/div&gt;&lt;/div&gt;" style="rounded=1;whiteSpace=wrap;html=1;arcSize=4;verticalAlign=top;align=left;fillColor=#f5f5f5;fontColor=#333333;strokeColor=#666666;" vertex="1" parent="16">
                    <mxGeometry x="981" y="238" width="344" height="126" as="geometry"/>
                </mxCell>
                <mxCell id="180" style="edgeStyle=orthogonalEdgeStyle;html=1;entryX=0.75;entryY=0;entryDx=0;entryDy=0;dashed=1;fontFamily=Helvetica;fontSize=12;fontColor=#80001a;exitX=0;exitY=0.75;exitDx=0;exitDy=0;" edge="1" parent="16" source="173" target="141">
                    <mxGeometry relative="1" as="geometry">
                        <Array as="points">
                            <mxPoint x="1346" y="342"/>
                            <mxPoint x="1346" y="448"/>
                            <mxPoint x="1252" y="448"/>
                        </Array>
                    </mxGeometry>
                </mxCell>
                <mxCell id="182" value="&lt;span style=&quot;color: rgb(0, 0, 0);&quot;&gt;Dependência Lógica&lt;/span&gt;" style="edgeLabel;html=1;align=center;verticalAlign=middle;resizable=0;points=[];fontSize=12;fontFamily=Helvetica;fontColor=#80001a;" vertex="1" connectable="0" parent="180">
                    <mxGeometry x="0.0516" y="1" relative="1" as="geometry">
                        <mxPoint as="offset"/>
                    </mxGeometry>
                </mxCell>
                <mxCell id="173" value="&lt;div style=&quot;color: rgb(0, 0, 0); line-height: 19px;&quot;&gt;&lt;font style=&quot;font-size: 12px;&quot;&gt;&lt;span style=&quot;color: rgb(121, 94, 38); background-color: initial;&quot;&gt;dash_events_per_team&lt;/span&gt;()&lt;/font&gt;&lt;/div&gt;&lt;div style=&quot;line-height: 19px;&quot;&gt;&lt;div style=&quot;line-height: 19px;&quot;&gt;&lt;div style=&quot;color: rgb(0, 0, 0); line-height: 19px;&quot;&gt;&lt;font style=&quot;font-size: 12px;&quot;&gt;&lt;span style=&quot;color: rgb(163, 21, 21);&quot;&gt;Função que cria o gráfico de eventos por time.&lt;/span&gt;&lt;span style=&quot;color: #a31515;&quot;&gt;&lt;font style=&quot;font-size: 12px;&quot;&gt;&lt;br&gt;&lt;/font&gt;&lt;/span&gt;&lt;/font&gt;&lt;/div&gt;&lt;div style=&quot;color: rgb(0, 0, 0); line-height: 19px;&quot;&gt;&lt;span style=&quot;color: rgb(163, 21, 21); background-color: initial;&quot;&gt;&lt;font style=&quot;font-size: 12px;&quot;&gt;&lt;br&gt;&lt;/font&gt;&lt;/span&gt;&lt;/div&gt;&lt;div style=&quot;color: rgb(0, 0, 0); line-height: 19px;&quot;&gt;&lt;div style=&quot;border-color: var(--border-color); line-height: 19px;&quot;&gt;&lt;font style=&quot;border-color: var(--border-color); font-size: 12px;&quot;&gt;&lt;span style=&quot;border-color: var(--border-color); color: rgb(163, 21, 21);&quot;&gt;Input:&amp;nbsp;&lt;/span&gt;&lt;span style=&quot;border-color: var(--border-color); color: rgb(163, 21, 21); background-color: initial;&quot;&gt;df&lt;/span&gt;&lt;/font&gt;&lt;/div&gt;&lt;div style=&quot;border-color: var(--border-color); line-height: 19px;&quot;&gt;&lt;font style=&quot;border-color: var(--border-color); font-size: 12px;&quot;&gt;&lt;span style=&quot;border-color: var(--border-color); color: rgb(163, 21, 21);&quot;&gt;Output: fig pyplot&lt;/span&gt;&lt;/font&gt;&lt;/div&gt;&lt;/div&gt;&lt;/div&gt;&lt;/div&gt;" style="rounded=1;whiteSpace=wrap;html=1;arcSize=4;verticalAlign=top;align=left;fillColor=#f5f5f5;fontColor=#333333;strokeColor=#666666;" vertex="1" parent="16">
                    <mxGeometry x="1454" y="234" width="344" height="126" as="geometry"/>
                </mxCell>
                <mxCell id="181" style="edgeStyle=orthogonalEdgeStyle;html=1;dashed=1;fontFamily=Helvetica;fontSize=12;fontColor=#80001a;" edge="1" parent="16" source="174" target="141">
                    <mxGeometry relative="1" as="geometry"/>
                </mxCell>
                <mxCell id="183" value="&lt;span style=&quot;color: rgb(0, 0, 0);&quot;&gt;Dependência Lógica&lt;/span&gt;" style="edgeLabel;html=1;align=center;verticalAlign=middle;resizable=0;points=[];fontSize=12;fontFamily=Helvetica;fontColor=#80001a;" vertex="1" connectable="0" parent="181">
                    <mxGeometry x="0.41" y="4" relative="1" as="geometry">
                        <mxPoint as="offset"/>
                    </mxGeometry>
                </mxCell>
                <mxCell id="174" value="&lt;div style=&quot;color: rgb(0, 0, 0); line-height: 19px;&quot;&gt;&lt;font style=&quot;font-size: 12px;&quot;&gt;&lt;span style=&quot;color: rgb(121, 94, 38); font-family: Consolas, &amp;quot;Courier New&amp;quot;, monospace; background-color: initial;&quot;&gt;getPlayerProfile&lt;/span&gt;()&lt;/font&gt;&lt;/div&gt;&lt;div style=&quot;line-height: 19px;&quot;&gt;&lt;div style=&quot;line-height: 19px;&quot;&gt;&lt;div style=&quot;color: rgb(0, 0, 0); line-height: 19px;&quot;&gt;&lt;font style=&quot;font-size: 12px;&quot;&gt;&lt;span style=&quot;color: rgb(163, 21, 21); background-color: initial;&quot;&gt;Função que faz o request à API para&amp;nbsp; o dataset agregado por eventos para criação dos perfis dos jogadores.&lt;/span&gt;&lt;/font&gt;&lt;/div&gt;&lt;div style=&quot;color: rgb(0, 0, 0); line-height: 19px;&quot;&gt;&lt;font style=&quot;font-size: 12px;&quot;&gt;&lt;span style=&quot;color: rgb(163, 21, 21);&quot;&gt;Input: df_eventos,&amp;nbsp;&lt;/span&gt;&lt;span style=&quot;border-color: var(--border-color); color: rgb(163, 21, 21); background-color: initial;&quot;&gt;jogadorA, jogadorB&lt;/span&gt;&lt;/font&gt;&lt;/div&gt;&lt;div style=&quot;color: rgb(0, 0, 0); line-height: 19px;&quot;&gt;&lt;font style=&quot;font-size: 12px;&quot;&gt;&lt;span style=&quot;color: rgb(163, 21, 21);&quot;&gt;Output: n/a&lt;/span&gt;&lt;/font&gt;&lt;span style=&quot;font-size: 13px; color: rgb(163, 21, 21); background-color: initial;&quot;&gt;&lt;br&gt;&lt;/span&gt;&lt;/div&gt;&lt;/div&gt;&lt;/div&gt;" style="rounded=1;whiteSpace=wrap;html=1;arcSize=4;verticalAlign=top;align=left;fillColor=#f5f5f5;fontColor=#333333;strokeColor=#666666;" vertex="1" parent="16">
                    <mxGeometry x="1454" y="509" width="344" height="107" as="geometry"/>
                </mxCell>
                <mxCell id="185" style="edgeStyle=orthogonalEdgeStyle;html=1;entryX=1;entryY=0.25;entryDx=0;entryDy=0;dashed=1;fontFamily=Helvetica;fontSize=12;fontColor=#80001a;" edge="1" parent="16" source="184" target="141">
                    <mxGeometry relative="1" as="geometry"/>
                </mxCell>
                <mxCell id="184" value="&lt;div style=&quot;color: rgb(0, 0, 0); line-height: 19px;&quot;&gt;&lt;font style=&quot;font-size: 12px;&quot;&gt;&lt;span style=&quot;color: rgb(121, 94, 38); background-color: initial;&quot;&gt;show_df_events&lt;/span&gt;()&lt;/font&gt;&lt;/div&gt;&lt;div style=&quot;line-height: 19px;&quot;&gt;&lt;div style=&quot;line-height: 19px;&quot;&gt;&lt;div style=&quot;color: rgb(0, 0, 0); line-height: 19px;&quot;&gt;&lt;div style=&quot;line-height: 19px;&quot;&gt;&lt;span style=&quot;color: #a31515;&quot;&gt;&lt;font style=&quot;font-size: 12px;&quot;&gt;Função que cria filtros para o dataset de eventos e retorna o dataset filtrado.&lt;/font&gt;&lt;/span&gt;&lt;/div&gt;&lt;/div&gt;&lt;div style=&quot;color: rgb(0, 0, 0); line-height: 19px;&quot;&gt;&lt;font style=&quot;font-size: 12px;&quot;&gt;&lt;span style=&quot;color: rgb(163, 21, 21);&quot;&gt;Input:&amp;nbsp;&lt;/span&gt;&lt;span style=&quot;border-color: var(--border-color); color: rgb(163, 21, 21); background-color: initial;&quot;&gt;df_events&lt;/span&gt;&lt;/font&gt;&lt;/div&gt;&lt;div style=&quot;color: rgb(0, 0, 0); line-height: 19px;&quot;&gt;&lt;font style=&quot;font-size: 12px;&quot;&gt;&lt;span style=&quot;color: rgb(163, 21, 21);&quot;&gt;Output: df (df_events filtrado)&lt;/span&gt;&lt;/font&gt;&lt;span style=&quot;font-size: 13px; color: rgb(163, 21, 21); background-color: initial;&quot;&gt;&lt;br&gt;&lt;/span&gt;&lt;/div&gt;&lt;/div&gt;&lt;/div&gt;" style="rounded=1;whiteSpace=wrap;html=1;arcSize=4;verticalAlign=top;align=left;fillColor=#f5f5f5;fontColor=#333333;strokeColor=#666666;" vertex="1" parent="16">
                    <mxGeometry x="1454" y="380" width="344" height="102" as="geometry"/>
                </mxCell>
                <mxCell id="12" value="app/router" style="swimlane;horizontal=0;whiteSpace=wrap;html=1;fontSize=9;" parent="1" vertex="1">
                    <mxGeometry x="-4340" y="-1659" width="1767" height="406" as="geometry"/>
                </mxCell>
                <mxCell id="22" value="routes.py&lt;br&gt;Criação ads rotas de API (Server) e chamadas ao statsbombpy para obtenção dos dados" style="rounded=1;whiteSpace=wrap;html=1;fillColor=#ffe6cc;strokeColor=#d79b00;arcSize=2;verticalAlign=top;align=left;" parent="12" vertex="1">
                    <mxGeometry x="45" y="30" width="1700" height="268" as="geometry"/>
                </mxCell>
                <mxCell id="61" value="&lt;font style=&quot;font-size: 12px;&quot;&gt;&lt;span style=&quot;border-color: var(--border-color); font-family: Consolas, &amp;quot;Courier New&amp;quot;, monospace; color: rgb(121, 94, 38);&quot;&gt;endpoint get&lt;/span&gt;&lt;span style=&quot;border-color: var(--border-color); color: rgb(0, 0, 0); font-family: Consolas, &amp;quot;Courier New&amp;quot;, monospace;&quot;&gt;(&lt;/span&gt;&lt;/font&gt;&lt;span style=&quot;border-color: var(--border-color); font-family: Consolas, &amp;quot;Courier New&amp;quot;, monospace; color: rgb(163, 21, 21);&quot;&gt;&lt;font style=&quot;font-size: 12px;&quot;&gt;&quot;/competitions&quot;)&lt;br&gt;Obtem a relação de competições do statsbombpy e seleciona somente as colunas necessárias&lt;br&gt;&lt;/font&gt;&lt;br&gt;Inputs: Não há&lt;br&gt;Output: Lista de dicionários&lt;br&gt;&lt;/span&gt;" style="rounded=1;whiteSpace=wrap;html=1;arcSize=4;verticalAlign=top;align=left;fillColor=#f5f5f5;fontColor=#333333;strokeColor=#666666;" vertex="1" parent="12">
                    <mxGeometry x="529" y="120" width="381" height="103" as="geometry"/>
                </mxCell>
                <mxCell id="62" value="&lt;font style=&quot;font-size: 12px;&quot;&gt;&lt;span style=&quot;border-color: var(--border-color); font-family: Consolas, &amp;quot;Courier New&amp;quot;, monospace; color: rgb(121, 94, 38);&quot;&gt;endpoint get&lt;/span&gt;&lt;span style=&quot;border-color: var(--border-color); color: rgb(0, 0, 0); font-family: Consolas, &amp;quot;Courier New&amp;quot;, monospace;&quot;&gt;(&lt;/span&gt;&lt;/font&gt;&lt;span style=&quot;border-color: var(--border-color); font-family: Consolas, &amp;quot;Courier New&amp;quot;, monospace; color: rgb(163, 21, 21);&quot;&gt;&lt;font style=&quot;font-size: 12px;&quot;&gt;&lt;font style=&quot;font-size: 12px;&quot;&gt;&quot;&lt;span style=&quot;background-color: initial;&quot;&gt;/matches/&lt;/span&gt;&lt;span style=&quot;background-color: initial; color: rgb(0, 0, 255);&quot;&gt;{competition_id}&lt;/span&gt;&lt;span style=&quot;background-color: initial;&quot;&gt;/&lt;/span&gt;&lt;span style=&quot;background-color: initial; color: rgb(0, 0, 255);&quot;&gt;{season_id}&lt;/span&gt;&lt;span style=&quot;background-color: initial;&quot;&gt;&quot;)&lt;/span&gt;&lt;br&gt;Obtem a relação de partidas de uma competição&amp;nbsp;&lt;br&gt;&lt;/font&gt;&lt;br&gt;Inputs:&amp;nbsp;&lt;span style=&quot;background-color: initial;&quot;&gt;competition_id, season_id&lt;/span&gt;&lt;br&gt;Output: Lista de dicionários&lt;/font&gt;&lt;br&gt;&lt;/span&gt;" style="rounded=1;whiteSpace=wrap;html=1;arcSize=4;verticalAlign=top;align=left;fillColor=#f5f5f5;fontColor=#333333;strokeColor=#666666;" vertex="1" parent="12">
                    <mxGeometry x="949" y="134" width="373" height="89" as="geometry"/>
                </mxCell>
                <mxCell id="63" value="&lt;font style=&quot;font-size: 12px;&quot;&gt;&lt;span style=&quot;border-color: var(--border-color); font-family: Consolas, &amp;quot;Courier New&amp;quot;, monospace; color: rgb(121, 94, 38);&quot;&gt;endpoint get&lt;/span&gt;&lt;span style=&quot;border-color: var(--border-color); color: rgb(0, 0, 0); font-family: Consolas, &amp;quot;Courier New&amp;quot;, monospace;&quot;&gt;(&lt;/span&gt;&lt;/font&gt;&lt;span style=&quot;border-color: var(--border-color); font-family: Consolas, &amp;quot;Courier New&amp;quot;, monospace; color: rgb(163, 21, 21);&quot;&gt;&lt;font style=&quot;font-size: 12px;&quot;&gt;&lt;font style=&quot;font-size: 12px;&quot;&gt;&quot;&lt;span style=&quot;background-color: initial;&quot;&gt;/&lt;/span&gt;&lt;span style=&quot;background-color: initial;&quot;&gt;matchanalysis&lt;/span&gt;&lt;span style=&quot;background-color: initial;&quot;&gt;&quot;)&lt;/span&gt;&lt;span style=&quot;background-color: initial;&quot;&gt;&lt;br&gt;&lt;/span&gt;&lt;/font&gt;Obtem o dataset &quot;events&quot;, chama a função de pré-processamento dos dados e depois chama o modelo LLM principal.&lt;br&gt;&lt;br&gt;Input Params:&amp;nbsp;&lt;span style=&quot;background-color: initial;&quot;&gt;match_id, home_team, away_team, llm_tone, user_input&lt;/span&gt;&lt;br&gt;Output: String com a resposta do modelo LLM.&lt;/font&gt;&lt;br&gt;&lt;/span&gt;" style="rounded=1;whiteSpace=wrap;html=1;arcSize=4;verticalAlign=top;align=left;fillColor=#f5f5f5;fontColor=#333333;strokeColor=#666666;" vertex="1" parent="12">
                    <mxGeometry x="85" y="114" width="373" height="124" as="geometry"/>
                </mxCell>
                <mxCell id="64" value="&lt;font style=&quot;font-size: 12px;&quot;&gt;&lt;span style=&quot;border-color: var(--border-color); font-family: Consolas, &amp;quot;Courier New&amp;quot;, monospace; color: rgb(121, 94, 38);&quot;&gt;endpoint get&lt;/span&gt;&lt;span style=&quot;border-color: var(--border-color); color: rgb(0, 0, 0); font-family: Consolas, &amp;quot;Courier New&amp;quot;, monospace;&quot;&gt;(&lt;/span&gt;&lt;/font&gt;&lt;span style=&quot;border-color: var(--border-color); font-family: Consolas, &amp;quot;Courier New&amp;quot;, monospace; color: rgb(163, 21, 21);&quot;&gt;&lt;font style=&quot;font-size: 12px;&quot;&gt;&lt;font style=&quot;font-size: 12px;&quot;&gt;&quot;&lt;span style=&quot;font-size: 14px; background-color: initial;&quot;&gt;/player_profile/&lt;/span&gt;&lt;span style=&quot;font-size: 14px; background-color: initial; color: rgb(0, 0, 255);&quot;&gt;{match_id}&lt;/span&gt;&lt;span style=&quot;background-color: initial;&quot;&gt;&quot;)&lt;/span&gt;&lt;br&gt;&lt;/font&gt;Obtem o dataset &quot;events&quot;, porém faz um mais completo, com mais tipos de jogadas, para suporte à criação da página de estatísticas&lt;br&gt;&lt;/font&gt;&lt;br&gt;Inputs: match_id&lt;br&gt;Returns: Lista de dicionários&lt;br&gt;&lt;/span&gt;" style="rounded=1;whiteSpace=wrap;html=1;arcSize=4;verticalAlign=top;align=left;fillColor=#f5f5f5;fontColor=#333333;strokeColor=#666666;" vertex="1" parent="12">
                    <mxGeometry x="1354" y="130" width="373" height="124" as="geometry"/>
                </mxCell>
                <mxCell id="13" value="app/model" style="swimlane;horizontal=0;whiteSpace=wrap;html=1;" parent="1" vertex="1">
                    <mxGeometry x="-2447" y="-1473" width="273" height="200" as="geometry"/>
                </mxCell>
                <mxCell id="23" value="models.py&lt;br&gt;Define os Modelos Pydantic" style="rounded=1;whiteSpace=wrap;html=1;fillColor=#ffe6cc;strokeColor=#d79b00;" parent="13" vertex="1">
                    <mxGeometry x="51" y="61.5" width="147" height="77" as="geometry"/>
                </mxCell>
                <mxCell id="30" style="edgeStyle=none;html=1;startArrow=none;startFill=0;exitX=1;exitY=0.931;exitDx=0;exitDy=0;exitPerimeter=0;" parent="1" source="22" target="23" edge="1">
                    <mxGeometry relative="1" as="geometry"/>
                </mxCell>
                <mxCell id="31" value="Importa Modelos" style="edgeLabel;html=1;align=center;verticalAlign=middle;resizable=0;points=[];" parent="30" vertex="1" connectable="0">
                    <mxGeometry x="0.1168" y="-4" relative="1" as="geometry">
                        <mxPoint as="offset"/>
                    </mxGeometry>
                </mxCell>
                <mxCell id="36" style="edgeStyle=orthogonalEdgeStyle;html=1;startArrow=none;startFill=0;exitX=0.098;exitY=0.011;exitDx=0;exitDy=0;exitPerimeter=0;" parent="1" target="46" edge="1" source="63">
                    <mxGeometry relative="1" as="geometry">
                        <mxPoint x="-3446" y="-1640" as="sourcePoint"/>
                        <Array as="points">
                            <mxPoint x="-4218" y="-1884"/>
                            <mxPoint x="-3889" y="-1884"/>
                        </Array>
                    </mxGeometry>
                </mxCell>
                <mxCell id="38" value="Call" style="edgeLabel;html=1;align=center;verticalAlign=middle;resizable=0;points=[];" parent="36" vertex="1" connectable="0">
                    <mxGeometry x="-0.2748" y="4" relative="1" as="geometry">
                        <mxPoint as="offset"/>
                    </mxGeometry>
                </mxCell>
                <mxCell id="37" style="edgeStyle=orthogonalEdgeStyle;html=1;startArrow=none;startFill=0;entryX=0.5;entryY=1;entryDx=0;entryDy=0;" parent="1" source="63" target="41" edge="1">
                    <mxGeometry relative="1" as="geometry">
                        <Array as="points">
                            <mxPoint x="-4231" y="-1869"/>
                            <mxPoint x="-4376" y="-1869"/>
                            <mxPoint x="-4376" y="-1996"/>
                        </Array>
                    </mxGeometry>
                </mxCell>
                <mxCell id="39" value="Call" style="edgeLabel;html=1;align=center;verticalAlign=middle;resizable=0;points=[];" parent="37" vertex="1" connectable="0">
                    <mxGeometry x="-0.2989" y="-1" relative="1" as="geometry">
                        <mxPoint as="offset"/>
                    </mxGeometry>
                </mxCell>
                <mxCell id="40" value="&lt;div style=&quot;color: rgb(0, 0, 0); background-color: rgb(255, 255, 255); font-family: Consolas, &amp;quot;Courier New&amp;quot;, monospace; font-weight: normal; font-size: 14px; line-height: 19px;&quot;&gt;&lt;br&gt;&lt;/div&gt;" style="text;whiteSpace=wrap;html=1;" vertex="1" parent="1">
                    <mxGeometry x="-4380.714285714285" y="-1763.7142857142856" width="251" height="41" as="geometry"/>
                </mxCell>
                <mxCell id="60" value="&lt;div style=&quot;color: rgb(0, 0, 0); background-color: rgb(255, 255, 255); font-family: Consolas, &amp;quot;Courier New&amp;quot;, monospace; font-weight: normal; font-size: 14px; line-height: 19px;&quot;&gt;&lt;br&gt;&lt;/div&gt;" style="text;whiteSpace=wrap;html=1;fontSize=10;" vertex="1" parent="1">
                    <mxGeometry x="-3424.6455942789707" y="-1362.6666259765625" width="174" height="41" as="geometry"/>
                </mxCell>
                <mxCell id="69" style="edgeStyle=orthogonalEdgeStyle;html=1;entryX=0.75;entryY=0;entryDx=0;entryDy=0;fontSize=12;exitX=0.5;exitY=1;exitDx=0;exitDy=0;" edge="1" parent="1" source="67" target="61">
                    <mxGeometry relative="1" as="geometry">
                        <Array as="points">
                            <mxPoint x="-3223" y="-1680"/>
                            <mxPoint x="-3525" y="-1680"/>
                        </Array>
                    </mxGeometry>
                </mxCell>
                <mxCell id="95" style="edgeStyle=orthogonalEdgeStyle;html=1;fontFamily=Helvetica;fontSize=12;fontColor=#80001a;entryX=0.75;entryY=0;entryDx=0;entryDy=0;" edge="1" parent="1" source="92" target="62">
                    <mxGeometry relative="1" as="geometry">
                        <Array as="points">
                            <mxPoint x="-2952" y="-1685"/>
                            <mxPoint x="-3111" y="-1685"/>
                        </Array>
                    </mxGeometry>
                </mxCell>
                <mxCell id="138" style="edgeStyle=orthogonalEdgeStyle;html=1;fontFamily=Helvetica;fontSize=12;fontColor=#80001a;exitX=0.5;exitY=1;exitDx=0;exitDy=0;fillColor=#d5e8d4;strokeColor=#82b366;" edge="1" parent="1" source="137" target="63">
                    <mxGeometry relative="1" as="geometry">
                        <Array as="points">
                            <mxPoint x="-2645" y="-1708"/>
                            <mxPoint x="-4069" y="-1708"/>
                        </Array>
                    </mxGeometry>
                </mxCell>
                <mxCell id="143" style="edgeStyle=orthogonalEdgeStyle;html=1;fontFamily=Helvetica;fontSize=12;fontColor=#80001a;exitX=0.5;exitY=1;exitDx=0;exitDy=0;" edge="1" parent="1" source="141" target="64">
                    <mxGeometry relative="1" as="geometry">
                        <Array as="points">
                            <mxPoint x="-2230" y="-1675"/>
                            <mxPoint x="-2799" y="-1675"/>
                        </Array>
                    </mxGeometry>
                </mxCell>
            </root>
        </mxGraphModel>
    </diagram>
</mxfile>